<?xml version="1.0" standalone="no"?><!DOCTYPE svg PUBLIC "-//W3C//DTD SVG 1.1//EN" "http://www.w3.org/Graphics/SVG/1.1/DTD/svg11.dtd"><svg t="1779578379099" class="icon" viewBox="0 0 1024 1024" version="1.1" xmlns="http://www.w3.org/2000/svg" p-id="3455" xmlns:xlink="http://www.w3.org/1999/xlink" width="256" height="256"><path d="M920.064 606.72c33.28 24.064 46.08 68.096 30.208 105.984-15.872 37.888-55.296 60.416-96.256 54.272-100.864 148.48-286.208 213.504-457.728 160.768-171.52-52.736-288.256-211.456-287.744-390.656 0-12.288 2.048-24.576 2.048-36.864-34.816-20.48-51.2-61.44-40.96-100.352 10.752-38.912 46.08-65.536 86.016-65.536h7.168c56.832-99.84 153.6-171.008 265.728-195.584 14.336-40.448 54.784-65.024 97.28-58.88s74.24 41.472 76.288 84.48-26.624 80.896-68.608 91.136-84.48-10.752-102.4-50.176c-87.04 22.528-162.816 79.36-208.896 158.208 21.504 23.552 28.16 56.832 18.432 87.04-10.24 30.208-35.328 52.736-66.56 59.392v27.136c0 149.504 96.768 282.112 239.616 327.68 142.848 45.056 298.496-7.168 384.512-130.048-20.48-25.088-25.6-59.392-13.312-89.088 12.288-29.696 39.936-50.688 71.68-54.272 12.8-74.752-0.512-151.552-36.864-218.112l57.344-31.232c44.032 80.384 59.392 174.08 43.008 264.704z m-602.112-66.56c0-107.008 86.528-193.536 193.536-193.536s193.536 86.528 193.536 193.536-86.528 193.536-193.536 193.536-193.536-86.528-193.536-193.536z" p-id="3456" fill="#fe7236"></path></svg>